<svg width="1024" height="1024" viewBox="0 0 1024 1024" fill="none" xmlns="http://www.w3.org/2000/svg">
<path d="M512 0C793.762 0 1022.36 227.599 1023.99 508.978C1022.42 261.84 828.494 62 589.5 62C349.532 62 155 263.472 155 512C155 760.528 349.532 962 589.5 962C828.494 962 1022.42 762.159 1023.99 515.021C1022.36 796.401 793.762 1024 512 1024C229.23 1024 0 794.77 0 512C0 229.23 229.23 0 512 0Z" fill="#7C5941"/>
<path d="M361.04 347C372.773 347 382 349.4 388.72 354.2C395.44 359 398.8 366.36 398.8 376.28C398.8 382.573 397.36 388.013 394.48 392.6C391.6 397.08 387.547 400.6 382.32 403.16C377.2 405.72 371.173 407.16 364.24 407.48L361.84 398.52C369.947 398.733 377.2 400.173 383.6 402.84C390 405.4 395.067 409.027 398.8 413.72C402.64 418.307 404.56 423.8 404.56 430.2C404.56 436.067 403.44 441.08 401.2 445.24C399.067 449.4 396.133 452.813 392.4 455.48C388.773 458.04 384.613 459.96 379.92 461.24C375.333 462.413 370.533 463 365.52 463H330.48V347H361.04ZM364.08 397.24C370.16 397.24 374.587 395.533 377.36 392.12C380.133 388.6 381.52 384.493 381.52 379.8C381.52 374.04 379.707 369.827 376.08 367.16C372.56 364.493 367.813 363.16 361.84 363.16H347.12V397.24H364.08ZM364.72 447.48C371.013 447.48 376.347 446.093 380.72 443.32C385.093 440.547 387.28 436.227 387.28 430.36C387.28 426.093 386.107 422.733 383.76 420.28C381.413 417.827 378.427 416.067 374.8 415C371.173 413.933 367.44 413.4 363.6 413.4H347.12V447.48H364.72ZM461.688 347C469.794 347 476.994 348.44 483.288 351.32C489.581 354.093 494.488 358.2 498.008 363.64C501.634 368.973 503.448 375.587 503.448 383.48C503.448 388.067 502.754 392.6 501.368 397.08C499.981 401.56 497.741 405.613 494.648 409.24C491.661 412.867 487.608 415.8 482.488 418.04C477.474 420.173 471.288 421.24 463.928 421.24H446.808V463H430.168V347H461.688ZM463.608 405.08C469.581 405.08 474.168 403.96 477.368 401.72C480.674 399.373 482.968 396.6 484.248 393.4C485.528 390.093 486.168 387 486.168 384.12C486.168 381.987 485.794 379.747 485.048 377.4C484.301 374.947 483.074 372.653 481.368 370.52C479.768 368.28 477.581 366.52 474.808 365.24C472.034 363.853 468.621 363.16 464.568 363.16H446.808V405.08H463.608ZM483.128 415L513.208 463H493.688L463.128 415.32L483.128 415ZM536.418 347H612.418V363.16H553.058V396.6H606.018V412.76H553.058V446.84H614.658V463H536.418V347ZM631.021 347.64H650.541L680.941 433.56L678.061 432.44L700.781 373.88L708.461 396.6L677.261 468.44L631.021 347.64ZM687.341 347.64H703.981L737.101 432.28L733.741 431.64L762.221 347.64H780.141L734.701 468.12L687.341 347.64ZM423.28 587V703H406.48V652.76H347.12V703H330.48V587H347.12V636.76H406.48V587H423.28ZM444.105 703L495.145 582.2H496.105L547.145 703H527.785L490.665 608.44L502.665 600.6L460.745 703H444.105ZM474.985 659.48H516.585L522.345 673.88H470.025L474.985 659.48ZM562.115 587L599.715 680.92L590.115 679L625.315 587H645.155L593.635 708.44L542.115 587H562.115ZM667.824 587H743.824V603.16H684.464V636.6H737.424V652.76H684.464V686.84H746.064V703H667.824V587ZM873.628 707L784.188 617.72L789.148 619.32L789.468 703H772.668V583.32H773.308L861.628 672.6L857.788 671.64L857.468 587H874.108V707H873.628Z" fill="#7C5941"/>
</svg>
